<svg xmlns="http://www.w3.org/2000/svg" width="210" height="210"><path d="M182.29 119.83h6a15.55 15.55 0 0 0 15.56-15.55 15.55 15.55 0 0 0-15.56-15.56h-5.18a10.37 10.37 0 0 1-10.37-10.37v-6a10.37 10.37 0 0 0-10.37-10.37h-2.27" fill="none" stroke="#d5dbed" stroke-linecap="round" stroke-linejoin="round" stroke-width="2"/><rect x="137.61" y="111.9" width="43.96" height="13.82" rx="6.91" ry="6.91" fill="none" stroke="#d5dbed" stroke-linecap="round" stroke-linejoin="round" stroke-width="2"/><path d="M45.15 94.73a9.38 9.38 0 0 1 9.38 9.38 9.38 9.38 0 0 1-9.38 9.37H17.29a10.36 10.36 0 0 0-10.36 10.37 10.36 10.36 0 0 0 10.36 10.36h90.43a15 15 0 0 0 15-15M41.7 78.52H27.78a8.11 8.11 0 0 0-8.1 8.11 8.1 8.1 0 0 0 8.1 8.1" fill="none" stroke="#d5dbed" stroke-linecap="round" stroke-linejoin="round" stroke-width="2"/><path fill="#1e2126" d="M148.99 94h20.16v20.16h-20.16z"/><path d="M108.87 61.8L42.36 37.59l11.15 21.78a19 19 0 0 0 10.37 9.16l53 19.27 1.82-5z" fill="#dae2ed"/><path d="M108.87 61.8L42.36 37.59l11.15 21.78a19 19 0 0 0 10.37 9.16l53 19.27 1.82-5z" fill="none" stroke="#1e2126" stroke-linecap="round" stroke-linejoin="round" stroke-width="2"/><path d="M124.16 59.55l-88.4-32.17a.66.66 0 0 0-.82.92l3.37 6.84a3.35 3.35 0 0 0 1.85 1.66l2.2.79 66.51 24.21 9.78 21-1.82 5-1.37 3.76 22.27 8.11 3.2-8.79-13-27.88a6.69 6.69 0 0 0-3.77-3.45z" fill="#eceff6"/><path d="M124.16 59.55l-88.4-32.17a.66.66 0 0 0-.82.92l3.37 6.84a3.35 3.35 0 0 0 1.85 1.66l2.2.79 66.51 24.21 9.78 21-1.82 5-1.37 3.76 22.27 8.11 3.2-8.79-13-27.88a6.69 6.69 0 0 0-3.77-3.45z" fill="none" stroke="#1e2126" stroke-linecap="round" stroke-linejoin="round" stroke-width="2"/><circle cx="105.02" cy="101.24" r="42.55" transform="rotate(-89.72 105.019 101.237)" fill="#4f5d7f"/><circle cx="105.02" cy="101.24" r="42.55" transform="rotate(-89.72 105.019 101.237)" fill="none" stroke="#1e2126" stroke-linecap="round" stroke-linejoin="round" stroke-width="2"/><circle cx="105.02" cy="101.24" r="27.65" transform="rotate(-89.72 105.019 101.237)" fill="#7687b2"/><path d="M133.44 67.61c.08 6.51-17.07 22.36-28.29 31.16-10.34.08-36-1-42.06-6.86a2.57 2.57 0 0 1-1-1.9 2.82 2.82 0 0 1 .11-.78 44 44 0 0 1 23.69-28.37c14.69-7 32.18-5 46.79 5.26a1.67 1.67 0 0 1 .76 1.49z" fill="#ff7f14"/><path d="M133.44 67.61c.08 6.51-17.07 22.36-28.29 31.16-10.34.08-36-1-42.06-6.86a2.57 2.57 0 0 1-1-1.9 2.82 2.82 0 0 1 .11-.78 44 44 0 0 1 23.69-28.37c14.69-7 32.18-5 46.79 5.26a1.67 1.67 0 0 1 .76 1.49z" fill="none" stroke="#1e2126" stroke-linecap="round" stroke-linejoin="round" stroke-width="2"/><path d="M105.89 100.89S65 76.44 69.11 71.34A45.67 45.67 0 0 1 85 58.94c16.56-7.85 34.88-4.42 48.92 5.44 9.94 7-28.03 36.51-28.03 36.51z" fill="#ff903e"/><path d="M105.89 100.89S65 76.44 69.11 71.34A45.67 45.67 0 0 1 85 58.94c16.56-7.85 34.88-4.42 48.92 5.44 9.94 7-28.03 36.51-28.03 36.51z" fill="none" stroke="#1e2126" stroke-linecap="round" stroke-linejoin="round" stroke-width="2"/><circle cx="105.02" cy="101.24" r="23.4" transform="rotate(-89.72 105.019 101.237)" fill="#ebeff7"/><circle cx="105.02" cy="101.24" r="23.4" transform="rotate(-89.72 105.019 101.237)" fill="none" stroke="#1e2126" stroke-linecap="round" stroke-linejoin="round" stroke-width="2"/><path d="M93.28 92.88L104 86.53a2.16 2.16 0 0 1 2.13 0l10.84 6.09a2.12 2.12 0 0 1 1.03 1.81l.15 12.43a2.14 2.14 0 0 1-1 1.86l-10.69 6.34a2.13 2.13 0 0 1-2.13 0L93.47 109a2.13 2.13 0 0 1-1.08-1.83l-.15-12.43a2.12 2.12 0 0 1 1.04-1.86z" fill="#c5cedd"/><path d="M167.09 100.25h-7.47v8.18H167c-.11-2.72-.1-5.43.09-8.18z" fill="#80a7ff"/><path d="M164.4 118H133a.67.67 0 1 1 0-1.34h31.4a.67.67 0 0 0 .67-.66v-5a.67.67 0 1 1 1.34 0v5a2 2 0 0 1-2.01 2z" fill="#e4e9f7"/><rect x="162.74" y="98.3" width="6.01" height="15.69" rx=".67" ry=".67" fill="#1e2126"/><path d="M167 100.25h2.71a.67.67 0 0 1 .67.67v6.85a.66.66 0 0 1-.66.66h-2.56A4.17 4.17 0 0 1 163 105a4.1 4.1 0 0 1 4-4.75zM158.15 141.33h-3.7a1.72 1.72 0 0 0-1.72 1.72v7.74a3.88 3.88 0 0 1-3.86 3.87 3.88 3.88 0 0 1-3.87-3.87v-32.51a4.29 4.29 0 0 1 4.3-4.3h13.14a4.29 4.29 0 0 1 4.3 4.3v14.46a8.59 8.59 0 0 1-8.59 8.59z" fill="#80a7ff"/><rect x="147.38" y="98.3" width="6.01" height="15.69" rx=".67" ry=".67"/><path d="M150.38 111v5a1.34 1.34 0 0 1-1.33 1.33h-31.39" fill="none" stroke="#2f3849" stroke-miterlimit="10" stroke-width="8"/><path d="M163.09 103.4a18.81 18.81 0 0 0-15.16-7.71h-25.4A11.32 11.32 0 0 0 111.24 107v20.73a7.53 7.53 0 0 0 7.53 7.53h36.68A11.32 11.32 0 0 0 166.74 124v-9.5a18.71 18.71 0 0 0-3.65-11.1z" fill="#9cb8ff"/><path d="M130.14 95.69h-7.61A11.32 11.32 0 0 0 111.24 107v18a7.53 7.53 0 0 0 7.53 7.53h11.48c-.19-12.24-.19-24.53-.11-36.84z" fill="#80a7ff"/><path d="M124.42 141.33h-3.69a1.72 1.72 0 0 0-1.72 1.72v7.74a3.88 3.88 0 0 1-3.87 3.87 3.88 3.88 0 0 1-3.87-3.87V112.2a4.31 4.31 0 0 1 4.3-4.3h13.15a4.31 4.31 0 0 1 4.3 4.3v20.54a8.59 8.59 0 0 1-8.6 8.59z" fill="#80a7ff"/><path d="M147.93 95.69a18.74 18.74 0 0 1 12.25 4.56h2.56V99a.66.66 0 0 1 .66-.67h4.68a.67.67 0 0 1 .67.67v1.28h1a.67.67 0 0 1 .67.67v6.85a.66.66 0 0 1-.66.66h-1v4.89a.67.67 0 0 1-.67.67h-1.36v18.75a8.59 8.59 0 0 1-8.59 8.59h-3.7a1.72 1.72 0 0 0-1.72 1.72v7.74a3.88 3.88 0 0 1-3.86 3.87 3.88 3.88 0 0 1-3.87-3.87v-15.58h-12.34a8.6 8.6 0 0 1-8.23 6.09h-3.69a1.72 1.72 0 0 0-1.72 1.72v7.74a3.87 3.87 0 0 1-7.74 0v-22.4V107a11.32 11.32 0 0 1 11.29-11.29h25.4m0-2h-25.4A13.3 13.3 0 0 0 109.24 107v43.81a5.87 5.87 0 0 0 11.74 0v-7.46h3.41a10.52 10.52 0 0 0 9.6-6.09h9v13.55a5.87 5.87 0 1 0 11.73 0v-7.46h3.42a10.6 10.6 0 0 0 10.59-10.59v-16.85a2.68 2.68 0 0 0 2-2.59v-3.1a2.66 2.66 0 0 0 1.62-2.45v-6.84a2.67 2.67 0 0 0-.78-1.89 2.59 2.59 0 0 0-.93-.61 2.67 2.67 0 0 0-2.61-2.13h-4.63a2.68 2.68 0 0 0-2.56 1.91 20.76 20.76 0 0 0-12.91-4.52z" fill="#1e2126"/><path d="M149.05 118h-31.39a.67.67 0 1 1 0-1.34h31.39a.67.67 0 0 0 .66-.66v-5a.67.67 0 0 1 1.34 0v5a2 2 0 0 1-2 2z" fill="#e4e9f7"/><rect x="147.38" y="98.3" width="6.01" height="15.69" rx=".67" ry=".67" fill="#1e2126"/><path d="M153 100.25h-15.34a4.57 4.57 0 0 1-4.57-4.56h-9.62v19.91H133c.88-5 5.26-7.17 10.53-7.17h9.27A4.17 4.17 0 0 0 157 105a4.1 4.1 0 0 0-4-4.75z" fill="#80a7ff"/><path fill="#b7c2ce" d="M88.885 115.749l26.014-5.968 2.265 9.874-26.014 5.968z"/><path fill="none" stroke="#1e2126" stroke-linecap="round" stroke-linejoin="round" stroke-width="2" d="M88.885 115.749l26.014-5.968 2.265 9.874-26.014 5.968z"/><path d="M95.51 127.34l-32.69 11.18a2 2 0 0 1-1.84-.28c-1.38-1-3.91-3.65-5.29-9.67s-.25-9.48.55-11a2 2 0 0 1 1.53-1l34.28-4.21a1.33 1.33 0 0 1 1.47 1l2.86 12.46a1.34 1.34 0 0 1-.87 1.52z" fill="#c5cedd"/><path d="M95.51 127.34l-32.69 11.18a2 2 0 0 1-1.84-.28c-1.38-1-3.91-3.65-5.29-9.67s-.25-9.48.55-11a2 2 0 0 1 1.53-1l34.28-4.21a1.33 1.33 0 0 1 1.47 1l2.86 12.46a1.34 1.34 0 0 1-.87 1.52z" fill="none" stroke="#1e2126" stroke-linecap="round" stroke-linejoin="round" stroke-width="2"/><path fill="#d0d9ea" d="M89.647 126.178l20.963-16.244 6.205 8.008-20.963 16.243z"/><path fill="none" stroke="#1e2126" stroke-linecap="round" stroke-linejoin="round" stroke-width="2" d="M89.647 126.178l20.963-16.244 6.205 8.008-20.963 16.243z"/><path d="M100.53 133.93l-25 23.88a2 2 0 0 1-1.79.51c-1.68-.35-5.08-1.67-8.87-6.55s-4.21-8.5-4.13-10.22a2 2 0 0 1 .95-1.6l29.34-18.23a1.34 1.34 0 0 1 1.76.32l7.83 10.1a1.35 1.35 0 0 1-.09 1.79z" fill="#ebeff7"/><path fill="none" stroke="#1e2126" stroke-linecap="round" stroke-linejoin="round" stroke-width="2" d="M79.11 129.16l1.39-.87M85.05 125.46l6-3.74a1.34 1.34 0 0 1 1.76.32l7.83 10.1a1.35 1.35 0 0 1-.13 1.79l-25 23.88a2 2 0 0 1-1.79.51c-1.68-.35-5.08-1.67-8.87-6.55s-4.21-8.5-4.13-10.22a2 2 0 0 1 .95-1.6l11.88-7.38"/><rect x="106.37" y="52.27" width="57.63" height="43.65" rx="11.34" ry="11.34" transform="rotate(-180 135.19 74.095)" fill="#80a7ff"/><rect x="113.74" y="52.27" width="57.63" height="43.65" rx="11.34" ry="11.34" transform="rotate(-180 142.555 74.095)" fill="#9cb8ff"/><path d="M118.12 82h-8.34a7.56 7.56 0 0 1-7.56-7.56v-5.29a7.56 7.56 0 0 1 7.56-7.55h8.34V82z" fill="#9cb8ff"/><path d="M118.12 66.13v11.34a.76.76 0 0 1-.76.76h-7.59a3.78 3.78 0 0 1-3.78-3.78v-5.29a3.78 3.78 0 0 1 3.78-3.78h7.6a.76.76 0 0 1 .75.75z" fill="#80a7ff"/><path d="M171.68 63.61H146a4.55 4.55 0 0 0-4.53 4.53v5.29a11.37 11.37 0 0 0 11.34 11.34h12.09a11.38 11.38 0 0 0 11.34-11.34v-5.29a4.55 4.55 0 0 0-4.56-4.53z" fill="#cbdaf7"/><path d="M164.88 84.77h-6.8a11.34 11.34 0 0 1-11.34-11.34v-5.29a4.53 4.53 0 0 1 4.53-4.53h20.41a4.53 4.53 0 0 1 4.53 4.53v5.3a11.34 11.34 0 0 1-11.33 11.33z" fill="#cbdaf7"/><rect x="127.54" y="67.92" width="7.46" height="7.46" rx="3.73" ry="3.73" transform="rotate(-180 131.265 71.65)"/><path d="M173.69 56.84a33.13 33.13 0 0 1-.81 35l-6.65 3.86-42.76-1.84L113.08 80l10.39-27.74h36.56z" fill="#4871e5" opacity=".5"/><path d="M160 52.27l13.66 4.57a32.61 32.61 0 0 1 4.57 15.21" fill="none" stroke="#1e2126" stroke-linecap="round" stroke-linejoin="round" stroke-width="2"/><path d="M139.59 41.54c-24.91 0-38.67 16.79-38.67 30.73s16.33 15.13 20.17 5.33l8.07-21.33 35.58 4.61 8.95-4c-3.34-5.47-15.62-15.34-34.1-15.34z" fill="#ebeff7"/><path d="M145 41.83a49.77 49.77 0 0 0-5.41-.29c-24.91 0-38.67 16.79-38.67 30.73s16.33 15.13 20.17 5.33l8.07-21.33 35.58 4.61 8.95-4c-2.13-3.46-7.9-8.74-16.6-12.1" fill="none" stroke="#1e2126" stroke-linecap="round" stroke-linejoin="round" stroke-width="2"/><path fill="#ebeff7" d="M118.41 80l22.52 11.83h31.95l-3.12 5.18h-59.98l-6.92-18.69L118.41 80z"/><path fill="none" stroke="#1e2126" stroke-linecap="round" stroke-linejoin="round" stroke-width="2" d="M132.35 97.01h-22.57l-6.92-18.69L118.41 80l22.52 11.83h31.95l-4.13 7.14"/><path d="M151.46 39.5l-.6 4a44.21 44.21 0 0 1 8.78 9.4l3.67-8.46c-2.97-2.07-7.03-3.34-11.85-4.94z" fill="#ff7f14"/><path fill="#ff903e" d="M159.64 52.95l3.67-8.46 3.19 8.46h-6.86z"/><path d="M166.5 53l-3.19-8.46c-3-2.12-7-3.39-11.85-5l-.6 4a44.21 44.21 0 0 1 8.78 9.4h6.86z" fill="none" stroke="#1e2126" stroke-linecap="round" stroke-linejoin="round" stroke-width="2"/><path d="M113.21 63.69l-6.69 2.12L103.59 54a2.74 2.74 0 0 1 1.83-3.27 2.73 2.73 0 0 1 3.38 1.62z" fill="#dae2ed"/><path d="M113.21 63.69l-6.69 2.12L103.59 54a2.74 2.74 0 0 1 1.83-3.27 2.73 2.73 0 0 1 3.38 1.62z" fill="none" stroke="#1e2126" stroke-linecap="round" stroke-linejoin="round" stroke-width="2"/><ellipse cx="111.47" cy="74.9" rx="14.03" ry="11.81" transform="rotate(-82.98 111.47 74.899)" fill="#dae2ed"/><ellipse cx="111.47" cy="74.9" rx="14.03" ry="11.81" transform="rotate(-82.98 111.47 74.899)" fill="none" stroke="#1e2126" stroke-linecap="round" stroke-linejoin="round" stroke-width="2"/><ellipse cx="109.99" cy="74.9" rx="9.97" ry="8.39" transform="rotate(-82.98 109.99 74.899)" fill="#b7c2ce"/><ellipse cx="109.7" cy="74.9" rx="7.14" ry="6.01" transform="rotate(-82.98 109.7 74.895)" fill="#ff903e"/><path d="M80.16 63.8L13.64 39.59l11.15 21.78a19 19 0 0 0 10.38 9.16L88.11 89.8l1.83-5z" fill="#dae2ed"/><path d="M95.45 61.55L7.05 29.38a.67.67 0 0 0-.83.92l3.37 6.84a3.4 3.4 0 0 0 1.86 1.66l2.19.79L80.16 63.8l9.78 21-1.83 5-1.37 3.76 22.26 8.11 3.2-8.79L99.21 65a6.68 6.68 0 0 0-3.76-3.45z" fill="#eceff6"/><path d="M18.32 48.72l6.47 12.65a19 19 0 0 0 10.38 9.16L88.11 89.8l1.83-5-9.78-21-66.52-24.21" fill="none" stroke="#1e2126" stroke-linecap="round" stroke-linejoin="round" stroke-width="2"/><path d="M95.45 61.55L7.05 29.38a.67.67 0 0 0-.83.92l3.37 6.84a3.4 3.4 0 0 0 1.86 1.66l2.19.79L80.16 63.8l9.78 21-1.83 5-1.37 3.76 22.26 8.11 3.2-8.79L99.21 65a6.68 6.68 0 0 0-3.76-3.45z" fill="none" stroke="#1e2126" stroke-linecap="round" stroke-linejoin="round" stroke-width="2"/><path d="M108.6 95.69h12v25.38a3.34 3.34 0 0 1-3.34 3.34h-8.66V95.69z" fill="#1e2126"/><rect x="99.66" y="90.16" width="18.09" height="11.7" rx="2.13" ry="2.13" fill="#ff5c5c"/><rect x="99.66" y="90.16" width="18.09" height="11.7" rx="2.13" ry="2.13" fill="none" stroke="#1e2126" stroke-linecap="round" stroke-linejoin="round" stroke-width="2"/><path d="M120.65 105.59h-10.88a5.36 5.36 0 0 1-5.35-5.35v-8.46a5.35 5.35 0 0 1 5.35-5.34h10.88a2 2 0 0 1 2 2v15.14a2 2 0 0 1-2 2.01z" fill="#d0d9ea"/><path d="M120.65 105.59h-10.88a5.36 5.36 0 0 1-5.35-5.35v-8.46a5.35 5.35 0 0 1 5.35-5.34h10.88a2 2 0 0 1 2 2v15.14a2 2 0 0 1-2 2.01z" fill="none" stroke="#1e2126" stroke-linecap="round" stroke-linejoin="round" stroke-width="2"/><ellipse cx="119.6" cy="182.64" rx="18.15" ry="3.22" fill="#d5dbed"/><rect x="26.21" y="90.27" width="10.31" height="7.92" rx="3.96" ry="3.96" fill="#fff"/><rect x="26.21" y="90.27" width="10.31" height="7.92" rx="3.96" ry="3.96" fill="none" stroke="#d5dbed" stroke-linecap="round" stroke-linejoin="round" stroke-width="2"/><path fill="none" stroke="#d5dbed" stroke-linecap="round" stroke-linejoin="round" stroke-width="2" d="M50.88 145.12H30.69"/><path fill="none" stroke="#d5dbed" stroke-linecap="round" stroke-linejoin="round" d="M92.36 24.13l-.99 1.24M87.36 29.3l-1 1.24M92.57 30.38l-1.08-1.18M87.23 25.47l-1.07-1.18M176.69 156.5l-.99 1.24M171.69 161.67l-.99 1.24M176.9 162.75l-1.08-1.19M171.56 157.84l-1.07-1.18M109.3 34.35v5.2M111.9 36.95h-5.2"/><circle cx="54.38" cy="161.26" r="3" fill="none" stroke="#d5dbed" stroke-linecap="round" stroke-linejoin="round"/><circle cx="118.12" cy="29.2" r="3" fill="none" stroke="#d5dbed" stroke-linecap="round" stroke-linejoin="round"/></svg>